<svg xmlns="http://www.w3.org/2000/svg" viewBox="0 0 495.12 140.68"><defs><style>.cls-1{fill:#f2f2f2;}</style></defs><g id="Camada_2" data-name="Camada 2"><g id="Camada_1-2" data-name="Camada 1"><path class="cls-1" d="M107.65,140.68h-.82c-7.46,0-13.65-4.53-16.15-11.84s-.43-15.06,5.35-19.54a1.75,1.75,0,0,0,.57-2L73.27,40.79a1.78,1.78,0,0,0-1.68-1.2h-.12a1.78,1.78,0,0,0-1.66,1.29L54.38,94.83A1.75,1.75,0,0,0,55,96.7c4.73,3.74,6.42,10.08,4.31,16.16a13.91,13.91,0,0,1-13.35,9.73h-.66a13.9,13.9,0,0,1-12.17-7.46,14.48,14.48,0,0,1,.06-14.69,1.77,1.77,0,0,0-.07-2L23.32,84.76A1.78,1.78,0,0,0,21.87,84a1.59,1.59,0,0,0-.43.06,19.4,19.4,0,0,1-5.13.72C6,84.78.22,75.89,0,67.52-.2,59.44,4.92,51,16.81,50.42h.58a16.29,16.29,0,0,1,14.55,9.23,16.92,16.92,0,0,1-.84,17.65,1.8,1.8,0,0,0,0,2.08L40.84,93a1.79,1.79,0,0,0,1.46.75,2.58,2.58,0,0,0,.4,0c.35-.08.7-.14,1.06-.19a1.79,1.79,0,0,0,1.51-1.28L60.7,38.34a1.77,1.77,0,0,0-.74-2c-8.29-5.25-9.89-14.9-7.79-22.15C54.67,5.58,61.91,0,70.62,0h.65c8.55,0,15.54,5.23,18.26,13.65s.12,17.15-6.67,22a1.77,1.77,0,0,0-.64,2l23.34,66.51a1.78,1.78,0,0,0,1.66,1.2,18,18,0,0,1,5.17.8,2,2,0,0,0,.54.08,1.78,1.78,0,0,0,1.43-.71L136,76.9a1.79,1.79,0,0,0,.11-2,14.65,14.65,0,0,1,.18-14.69,14.1,14.1,0,0,1,12.25-7.4H149c10.23.5,14.62,7.75,14.45,14.7-.18,7.18-5.15,14.8-14,14.8h0a16.79,16.79,0,0,1-3.91-.48,1.8,1.8,0,0,0-1.88.63L122,111.24a1.79,1.79,0,0,0,0,2.08,17.39,17.39,0,0,1,.62,18A16.77,16.77,0,0,1,107.65,140.68ZM107.13,115c-4,0-8,2.49-8.15,8.06.1,5.5,4.17,8,8.16,8s8.06-2.49,8.16-8C115.21,117.51,111.13,115,107.13,115ZM45.69,102.89a4.75,4.75,0,0,0-5,5.06c0,2.58,1.68,5.18,4.79,5.18a7.35,7.35,0,0,0,1.21-.11,5.13,5.13,0,0,0-1-10.13v-1.63Zm-28.8-43c-5.22.11-7.56,3.94-7.56,7.69s2.35,7.61,7.59,7.7c5.18-.09,7.53-3.93,7.53-7.7S22.11,60,16.89,59.88Zm132,2.43a5.27,5.27,0,1,0,5.13,5.27A5,5,0,0,0,148.92,62.31Zm-78-52.84c-7,.14-10.17,5.45-10.16,10.34S64,30,71,30.14c6.93-.11,10.12-5.43,10.13-10.33S77.92,9.61,70.93,9.47Z"/><path class="cls-1" d="M220.77,89.35l-.09-7.63c-5.81,9.49-23.25,11.25-29.33,1.22-3-5-2.41-12.8,2.54-16.29,5.21-4.88,19.68-3.06,26.71-3.38C222.88,46.58,205.32,45,194.43,54l-2.5-4c8.06-6.55,22-9.15,29.84-2.12,7.75,5.71,3.36,33.2,4.5,41.45Zm-5.54-7.41c4.89-3.13,6-8.63,5.45-14.16-5.33.35-18.73-1.2-22.83,2-4.18,2.53-3.79,9.66-.13,12.52C202,86.12,210.9,85.12,215.23,81.94Z"/><path class="cls-1" d="M258.52,48.89c-13.68-.55-20,16.17-14.25,27,4.95,10.61,21,11.26,28,2.51l3.17,3.47c-13,15.69-40.13,5.68-38.84-15.25C235.43,46.17,261,36.2,274.77,50.37l-3.17,3.89A17.74,17.74,0,0,0,258.52,48.89Z"/><path class="cls-1" d="M309.94,86.23c-5.06,3.76-13.23,5.06-17.58.17-5.34-4.86-2.07-30-2.92-36.64h-6.25l-.08-4.5h6.33V33.56H295v11.7c5.48.16,10.26-2,14.17-2v7.8c-3.8,0-8.61-1.76-14.17-1.3V75.83c-.3,9.64,7,10,13.25,6Z"/><path class="cls-1" d="M330.11,39.45v3.81h11.67v7.8H330.11V89.35h-9.33V51.06h-5.59v-7.8h5.59C318.55,27.67,333.89,17.34,346,28.45l-3.84,6.85C337.78,29.72,329.66,32.38,330.11,39.45Z"/><path class="cls-1" d="M360.11,89.35h-9.33V25.07h9.33Z"/><path class="cls-1" d="M410.7,83.15c-23,21.65-54.23-10.79-33.34-33.69C400.35,27.81,431.59,60.25,410.7,83.15Zm-26.71-6c14.82,13.74,32.35-7.85,20.08-21.75C389.25,41.69,371.72,63.28,384,77.18Z"/><path class="cls-1" d="M448.12,89.35H437.45L422.12,43.26h9.66l11,34.82,11-34.82h9.66l11,34.82,11-34.82h9.66L479.79,89.35H469.12l-10.5-31.53Z"/></g></g></svg>