<svg xmlns="http://www.w3.org/2000/svg" xmlns:xlink="http://www.w3.org/1999/xlink" viewBox="0 0 437.5 335.04"><defs><style>.cls-1{fill:url(#Gradiente_sem_nome_31);}.cls-2{fill:#060404;}</style><linearGradient id="Gradiente_sem_nome_31" x1="70.53" y1="100.7" x2="321.74" y2="100.7" gradientUnits="userSpaceOnUse"><stop offset="0.2" stop-color="#bc153d"/><stop offset="1" stop-color="#f09444"/></linearGradient></defs><g id="Camada_2" data-name="Camada 2"><g id="Camada_1-2" data-name="Camada 1"><path class="cls-1" d="M238.39,201.39h-1.17c-10.68,0-19.54-6.49-23.12-16.95s-.62-21.56,7.65-28a2.5,2.5,0,0,0,.82-2.84l-33.4-95.22a2.55,2.55,0,0,0-2.41-1.71h-.17a2.55,2.55,0,0,0-2.37,1.85l-22.09,77.23a2.48,2.48,0,0,0,.84,2.67c6.77,5.35,9.2,14.43,6.17,23.14S158.84,175.5,150,175.5h-.95a19.91,19.91,0,0,1-17.43-10.67c-3.78-6.83-3.75-14.89.09-21a2.54,2.54,0,0,0-.09-2.82l-14-19.64a2.54,2.54,0,0,0-2.06-1.09,2.18,2.18,0,0,0-.63.09,28.05,28.05,0,0,1-7.34,1c-14.75,0-23-12.73-23.34-24.71-.29-11.56,7-23.62,24-24.48.31,0,.58,0,.84,0,8.77,0,16.55,4.94,20.82,13.22,4.35,8.44,3.9,18.12-1.19,25.27a2.55,2.55,0,0,0,0,3l13.94,19.56a2.56,2.56,0,0,0,2.1,1.07,2.6,2.6,0,0,0,.56-.06c.51-.11,1-.2,1.53-.26a2.59,2.59,0,0,0,2.16-1.84l22.09-77.2a2.55,2.55,0,0,0-1.06-2.84C158.24,44.54,156,30.71,159,20.34,162.54,8,172.91,0,185.37,0h.94c12.24,0,22.25,7.49,26.13,19.54s.18,24.54-9.54,31.53A2.56,2.56,0,0,0,202,54l33.4,95.21a2.55,2.55,0,0,0,2.39,1.71,25.75,25.75,0,0,1,7.4,1.15,2.87,2.87,0,0,0,.77.11,2.53,2.53,0,0,0,2-1l30.95-41.08a2.53,2.53,0,0,0,.16-2.82,21,21,0,0,1,.26-21,20.16,20.16,0,0,1,17.53-10.58h.66c14.63.72,20.92,11.08,20.68,21-.26,10.27-7.38,21.19-20.07,21.19h0a24,24,0,0,1-5.6-.7,2.91,2.91,0,0,0-.66-.08,2.52,2.52,0,0,0-2,1l-31,41.16a2.55,2.55,0,0,0-.06,3c5,7.36,5.38,17.24.88,25.78C255.27,196.38,247.31,201.39,238.39,201.39Zm-.74-36.73c-5.7,0-11.53,3.57-11.68,11.53.15,7.87,6,11.44,11.69,11.44s11.54-3.57,11.68-11.53C249.21,168.22,243.37,164.66,237.65,164.66Zm-88-17.36c-5.31.11-7.16,4-7.13,7.24,0,3.68,2.41,7.42,6.86,7.42a9.47,9.47,0,0,0,1.73-.17c4.34-.83,6-4.54,5.66-7.85s-2.62-6.64-7.07-6.64V145ZM108.46,85.72c-7.47.15-10.82,5.64-10.82,11s3.36,10.89,10.86,11c7.42-.13,10.78-5.63,10.78-11S115.94,85.88,108.46,85.72Zm189,3.47c-5.08,0-7.36,3.81-7.36,7.54s2.28,7.52,7.37,7.55,7.34-3.81,7.34-7.54S302.55,89.23,297.47,89.19ZM185.82,13.55c-10,.21-14.56,7.82-14.55,14.81S175.85,43,185.86,43.15c9.93-.16,14.5-7.78,14.51-14.79S195.83,13.76,185.82,13.55Z"/><path class="cls-2" d="M44.75,333.7l-.12-10.91c-8.33,13.57-33.29,16.1-42,1.74-4.33-7.17-3.45-18.32,3.64-23.32,7.46-7,28.17-4.38,38.24-4.83,3.26-23.9-21.87-26.22-37.47-13.27l-3.57-5.7C15,268,35,264.31,46.18,274.37c11.09,8.17,4.81,47.53,6.44,59.33Zm-7.94-10.6c7-4.49,8.55-12.35,7.82-20.28-7.64.51-26.83-1.71-32.69,2.86-6,3.62-5.43,13.83-.18,17.92C17.91,329.09,30.62,327.65,36.81,323.1Z"/><path class="cls-2" d="M98.79,275.79c-19.59-.79-28.71,23.14-20.4,38.69,7.09,15.19,30.1,16.12,40.09,3.6l4.53,5c-18.59,22.46-57.45,8.13-55.6-21.83-1.67-29.32,34.94-43.59,54.65-23.31l-4.54,5.58A25.39,25.39,0,0,0,98.79,275.79Z"/><path class="cls-2" d="M172.4,329.24c-7.24,5.39-18.94,7.25-25.17.24-7.64-7-3-42.88-4.18-52.45h-9l-.11-6.44h9.06V253.85h8v16.74c7.83.23,14.68-2.86,20.28-2.86v11.16c-5.45,0-12.33-2.52-20.28-1.86v37.33c-.44,13.79,10,14.32,19,8.55Z"/><path class="cls-2" d="M201.27,262.28v5.45H218v11.16H201.27V333.7H187.91V278.89h-8V267.73h8c-3.18-22.32,18.78-37.12,36.15-21.2l-5.49,9.8C212.25,248.34,200.63,252.15,201.27,262.28Z"/><path class="cls-2" d="M244.22,333.7H230.86v-92h13.36Z"/><path class="cls-2" d="M316.64,324.84c-32.91,31-77.63-15.46-47.72-48.24C301.83,245.61,346.55,292.06,316.64,324.84Zm-38.24-8.56c21.22,19.67,46.32-11.23,28.76-31.13C285.94,265.48,260.84,296.39,278.4,316.28Z"/><path class="cls-2" d="M370.21,333.7H354.94l-21.95-66h13.84l15.75,49.85,15.74-49.85h13.84l15.75,49.85,15.75-49.85H437.5l-21.95,66H400.28l-15-45.13Z"/></g></g></svg>