<svg xmlns="http://www.w3.org/2000/svg" xmlns:xlink="http://www.w3.org/1999/xlink" viewBox="0 0 541 153.71"><defs><style>.cls-1{fill:url(#Gradiente_sem_nome_31);}.cls-2{fill:#060404;}</style><linearGradient id="Gradiente_sem_nome_31" y1="76.86" x2="178.57" y2="76.86" gradientUnits="userSpaceOnUse"><stop offset="0.2" stop-color="#bc153d"/><stop offset="1" stop-color="#f09444"/></linearGradient></defs><g id="Camada_2" data-name="Camada 2"><g id="Camada_1-2" data-name="Camada 1"><path class="cls-1" d="M117.63,153.71h-.9c-8.15,0-14.91-5-17.65-12.94s-.47-16.46,5.85-21.35a1.94,1.94,0,0,0,.62-2.18L80.06,44.57a2,2,0,0,0-1.84-1.31h-.13a1.94,1.94,0,0,0-1.81,1.41L59.42,103.62a1.9,1.9,0,0,0,.64,2c5.17,4.08,7,11,4.71,17.66A15.18,15.18,0,0,1,50.19,134h-.72a15.19,15.19,0,0,1-13.31-8.14,15.85,15.85,0,0,1,.07-16.06,1.9,1.9,0,0,0-.07-2.14l-10.68-15a2,2,0,0,0-1.58-.83,2,2,0,0,0-.48.07,21.29,21.29,0,0,1-5.6.78C6.56,92.63.24,82.92,0,73.78c-.23-8.83,5.36-18,18.36-18.69H19c6.69,0,12.63,3.77,15.89,10.09S37.87,79,34,84.46a2,2,0,0,0,0,2.26l10.64,14.93a2,2,0,0,0,1.6.81,2,2,0,0,0,.43,0c.39-.08.78-.15,1.17-.2a2,2,0,0,0,1.64-1.4L66.33,41.9a2,2,0,0,0-.81-2.17C56.45,34,54.71,23.44,57,15.53,59.73,6.09,67.65,0,77.16,0h.72c9.33,0,17,5.72,19.94,14.92S98,33.65,90.54,39a2,2,0,0,0-.7,2.23l25.5,72.67a1.94,1.94,0,0,0,1.82,1.3,20,20,0,0,1,5.65.88,2,2,0,0,0,.59.09,1.92,1.92,0,0,0,1.56-.78L148.57,84a1.94,1.94,0,0,0,.13-2.16,16,16,0,0,1,.2-16,15.38,15.38,0,0,1,13.38-8.08h.5c11.17.55,16,8.46,15.78,16.06C178.37,81.64,172.93,90,163.25,90h0a18.36,18.36,0,0,1-4.28-.53,2.07,2.07,0,0,0-.5-.06,1.9,1.9,0,0,0-1.55.75l-23.66,31.41a2,2,0,0,0,0,2.28c3.85,5.62,4.11,13.16.68,19.67S124.43,153.71,117.63,153.71Zm-.57-28c-4.35,0-8.8,2.72-8.91,8.8.11,6,4.55,8.73,8.91,8.73s8.82-2.72,8.92-8.8C125.88,128.4,121.43,125.68,117.06,125.68ZM49.93,112.42A5.19,5.19,0,0,0,44.49,118c0,2.82,1.84,5.66,5.24,5.66a7.71,7.71,0,0,0,1.32-.12A5.61,5.61,0,0,0,50,112.42v-1.78Zm-31.47-47c-5.71.12-8.26,4.3-8.26,8.4s2.56,8.31,8.29,8.42c5.66-.11,8.22-4.3,8.22-8.42S24.16,65.55,18.46,65.43Zm144.26,2.65c-3.88,0-5.62,2.9-5.62,5.75s1.74,5.74,5.63,5.76,5.6-2.9,5.6-5.75S166.59,68.1,162.72,68.08ZM77.5,10.34c-7.64.16-11.11,6-11.1,11.3s3.49,11.17,11.13,11.29C85.11,32.81,88.6,27,88.6,21.65S85.14,10.5,77.5,10.34Z"/><path class="cls-2" d="M241.22,97.62l-.09-8.33c-6.36,10.37-25.41,12.3-32,1.33-3.31-5.47-2.64-14,2.77-17.79,5.7-5.34,21.5-3.35,29.19-3.7,2.49-18.23-16.69-20-28.6-10.12l-2.73-4.36c8.81-7.15,24-10,32.6-2.31,8.47,6.24,3.68,36.28,4.92,45.28Zm-6.05-8.09c5.35-3.42,6.52-9.42,6-15.47-5.83.38-20.47-1.31-24.95,2.17C211.61,79,212,86.79,216,89.91,220.74,94.1,230.44,93,235.17,89.53Z"/><path class="cls-2" d="M282.47,53.42c-15-.6-21.91,17.67-15.57,29.53,5.41,11.6,23,12.3,30.6,2.75L301,89.48c-14.2,17.15-43.85,6.21-42.44-16.65-1.28-22.38,26.66-33.27,41.71-17.8l-3.46,4.26A19.39,19.39,0,0,0,282.47,53.42Z"/><path class="cls-2" d="M338.66,94.22c-5.53,4.11-14.46,5.53-19.22.19-5.83-5.32-2.26-32.74-3.19-40h-6.83l-.09-4.92h6.92V36.67h6.11V49.45c6,.18,11.2-2.18,15.48-2.18v8.52c-4.16,0-9.42-1.92-15.48-1.42V82.86C322,93.39,330,93.79,336.84,89.39Z"/><path class="cls-2" d="M360.69,43.11v4.16h12.75v8.52H360.69V97.62h-10.2V55.79h-6.1V47.27h6.1c-2.42-17,14.34-28.33,27.6-16.18l-4.19,7.48C369.07,32.47,360.2,35.38,360.69,43.11Z"/><path class="cls-2" d="M393.47,97.62H383.28V27.4h10.19Z"/><path class="cls-2" d="M448.75,90.86c-25.12,23.65-59.26-11.8-36.43-36.82C437.44,30.39,471.58,65.84,448.75,90.86Zm-29.19-6.53c16.2,15,35.35-8.58,21.95-23.76C425.31,45.55,406.16,69.15,419.56,84.33Z"/><path class="cls-2" d="M489.64,97.62H478L461.22,47.27h10.57l12,38,12-38h10.56l12,38,12-38H541L524.24,97.62H512.58L501.11,63.17Z"/></g></g></svg>